<?xml version="1.0" encoding="UTF-8"?>
<svg width="29px" height="33px" viewBox="0 0 29 33" version="1.1" xmlns="http://www.w3.org/2000/svg" xmlns:xlink="http://www.w3.org/1999/xlink">
    <!-- Generator: Sketch 61 (89581) - https://sketch.com -->
    <title>Group 3</title>
    <desc>Created with Sketch.</desc>
    <g id="Page-1" stroke="none" stroke-width="1" fill="none" fill-rule="evenodd">
        <g id="2" transform="translate(-866.000000, -65.000000)" stroke="#C2871E" stroke-width="2">
            <g id="Group-4" transform="translate(0.000000, 12.000000)">
                <g id="Group-3" transform="translate(866.000000, 54.000000)">
                    <path d="M0,0.000313822666 L3.52997039,0.000313822666 C5.07015083,-0.0131747404 5.45519594,1.26430459 4.68510572,3.83275182 C3.9150155,6.40119904 2.93682442,11.3078512 1.7505325,18.5527083 C1.47336485,21.5175694 2.59356157,23 5.11112266,23 C7.62868374,23 14.5916429,23 26,23" id="Path-8"></path>
                    <path d="M7,16 L23.425885,16 C25.3536136,15.6470546 26.4301622,14.9044477 26.655531,13.7721791 C26.8808997,12.6399106 27.329056,10.5076954 28,7.37553358 C27.910472,5.79184453 27.1257375,5 25.6457965,5 C24.1658555,5 18.6649705,5 9.14314159,5" id="Path-10"></path>
                    <circle id="Oval" cx="22.5" cy="28.5" r="2.5"></circle>
                    <circle id="Oval-Copy-8" cx="4.5" cy="28.5" r="2.5"></circle>
                </g>
            </g>
        </g>
    </g>
</svg>